HIERARCHY
ROOT Hips
{
	OFFSET 0.00000 0.00000 0.00000
	CHANNELS 6 Xposition Yposition Zposition Zrotation Yrotation Xrotation 
	JOINT LHipJoint
	{
		OFFSET 0 0 0
		CHANNELS 3 Zrotation Yrotation Xrotation
		JOINT LeftHip
		{
			OFFSET 1.44361 -1.63093 0.70831
			CHANNELS 3 Zrotation Yrotation Xrotation
			JOINT LeftKnee
			{
				OFFSET 2.20103 -6.04728 0.00000
				CHANNELS 3 Zrotation Yrotation Xrotation
				JOINT LeftAnkle
				{
					OFFSET 2.54154 -6.98283 0.00000
					CHANNELS 3 Zrotation Yrotation Xrotation
					JOINT LeftToe
					{
						OFFSET 0.05971 -0.16406 1.77582
						CHANNELS 3 Zrotation Yrotation Xrotation
						End Site
						{
							OFFSET 0.00000 -0.00000 0.90832
						}
					}
				}
			}
		}
	}
	JOINT RHipJoint
	{
		OFFSET 0 0 0
		CHANNELS 3 Zrotation Yrotation Xrotation
		JOINT RightHip
		{
			OFFSET -1.65838 -1.63093 0.70830
			CHANNELS 3 Zrotation Yrotation Xrotation
			JOINT RightKnee
			{
				OFFSET -2.26926 -6.23475 0.00000
				CHANNELS 3 Zrotation Yrotation Xrotation
				JOINT RightAnkle
				{
					OFFSET -2.34808 -6.45129 0.00000
					CHANNELS 3 Zrotation Yrotation Xrotation
					JOINT RightToe
					{
						OFFSET -0.18633 -0.51195 1.68539
						CHANNELS 3 Zrotation Yrotation Xrotation
						End Site
						{
							OFFSET -0.00000 -0.00000 0.88927
						}
					}
				}
			}
		}
	}
	JOINT lowerback
	{
		OFFSET 0 0 0
		CHANNELS 3 Zrotation Yrotation Xrotation
		JOINT Chest
		{
			OFFSET -0.10393 2.01691 0.06920
			CHANNELS 3 Zrotation Yrotation Xrotation
			JOINT Chest2
			{
				OFFSET 0.04092 2.01302 -0.05283
				CHANNELS 3 Zrotation Yrotation Xrotation
				JOINT lowerneck
				{
					OFFSET 0 0 0
					CHANNELS 3 Zrotation Yrotation Xrotation
					JOINT Neck
					{
						OFFSET -0.02870 1.58978 -0.03113
						CHANNELS 3 Zrotation Yrotation Xrotation
						JOINT Head
						{
							OFFSET 0.11532 1.54326 -0.29195
							CHANNELS 3 Zrotation Yrotation Xrotation
							End Site
							{
								OFFSET 0.04056 1.59999 -0.09535
							}
						}
					}
				}
				JOINT LeftCollar
				{
					OFFSET 0 0 0
					CHANNELS 3 Zrotation Yrotation Xrotation
					JOINT LeftShoulder
					{
						OFFSET 3.30641 1.15764 0.01104
CHANNELS 3 Zrotation Xrotation Yrotation
						JOINT LeftElbow
						{
OFFSET 0 -4.632080 0.000000
CHANNELS 3 Zrotation Xrotation Yrotation
							JOINT LeftWrist
							{
OFFSET 0 -3.419240 -0.000000
CHANNELS 3 Zrotation Xrotation Yrotation
								JOINT lhand
								{
									OFFSET 0 0 0
CHANNELS 3 Zrotation Xrotation Yrotation
									JOINT LFingers
									{
OFFSET 0 -0.625370 -0.000000
CHANNELS 3 Zrotation Xrotation Yrotation
										End Site
										{
OFFSET 0 -0.504190 -0.000000
										}
									}
								}
								JOINT LThumb
								{
OFFSET 0 0.000000 0.000000
CHANNELS 3 Zrotation Xrotation Yrotation
									End Site
									{
OFFSET 0 -0.511890 0.511890
									}
								}
							}
						}
					}
				}
				JOINT RightCollar
				{
					OFFSET 0 0 0
					CHANNELS 3 Zrotation Yrotation Xrotation
					JOINT RightShoulder
					{
						OFFSET -3.78081 1.02180 -0.16609
CHANNELS 3 Zrotation Xrotation Yrotation
						JOINT RightElbow
						{
OFFSET 0 -4.406400 -0.000000
CHANNELS 3 Zrotation Xrotation Yrotation
							JOINT RightWrist
							{
OFFSET 0 -3.446750 0.000000
CHANNELS 3 Zrotation Xrotation Yrotation
								JOINT rhand
								{
									OFFSET 0 0 0
CHANNELS 3 Zrotation Xrotation Yrotation
									JOINT RFingers
									{
OFFSET 0 -0.513670 -0.000000
CHANNELS 3 Zrotation Xrotation Yrotation
										End Site
										{
OFFSET 0 -0.414140 -0.000000
										}
									}
								}
								JOINT RThumb
								{
OFFSET 0 0.000000 0.000000
CHANNELS 3 Zrotation Xrotation Yrotation
									End Site
									{
OFFSET 0 -0.420460 0.420460
									}
								}
							}
						}
					}
				}
			}
		}
	}
}
MOTION
Frames: 9
Frame Time: 0.008333333333333333
8.857423 16.321791 7.045063 184.257110 17.388607 -162.718157 0.000000 0.000000 0.000000 -12.093832 -10.899156 -32.485897 3.202026 11.015118 32.330952 0.608638 4.524801 -17.076858 9.352087 -17.028769 -57.299492 0.000000 0.000000 0.000000 11.116272 7.658586 -2.489682 -19.505594 -19.993554 88.554277 -13.817611 33.102319 78.017487 -1.421990 -7.534428 21.311668 -6.342236 6.606686 -8.032461 0.231305 9.397915 0.222485 4.700300 4.551100 3.649224 -4.196044 -1.265660 -6.753143 6.808140 -4.857307 25.032570 2.459277 -2.707277 9.191800 0.000000 0.000000 0.000000 12.989891 14.807183 -24.847913 12.482697 -20.524048 2.268955 33.437912 4.403301 19.586349 0.000000 0.000000 0.000000 -7.125000 0.000000 0.000000 3.238404 6.917521 2.829547 0.000000 0.000000 0.000000 -9.561213 -7.412971 31.619816 -24.398641 -35.581258 -7.937983 -17.994477 16.725280 41.248722 0.000000 0.000000 0.000000 7.125000 0.000000 0.000000 28.236343 70.840412 -17.858318
8.822837 16.328007 6.932507 184.034114 16.905357 -162.762718 0.000000 0.000000 0.000000 -12.790978 -11.442051 -31.827253 3.168187 10.962296 32.153004 0.675478 4.160351 -17.584621 9.168126 -16.913762 -56.668359 0.000000 0.000000 0.000000 10.986185 8.161227 -2.871669 -19.096645 -19.974618 87.357159 -27.729770 42.346055 98.504674 -1.584209 -7.934602 22.518612 -6.239670 6.531882 -8.215821 0.365392 9.301203 0.417689 4.818659 4.484110 3.961384 -4.160314 -1.363739 -6.814953 6.526515 -4.990801 25.326926 2.341330 -2.800283 9.308394 0.000000 0.000000 0.000000 13.373903 15.130372 -25.845173 12.921016 -21.168884 2.426328 33.613961 4.358408 19.559557 0.000000 0.000000 0.000000 -7.125000 0.000000 0.000000 3.353565 6.908406 2.930960 0.000000 0.000000 0.000000 -9.990335 -6.879849 30.756863 -24.109231 -35.279109 -7.769723 -17.938437 17.152444 41.050561 0.000000 0.000000 0.000000 7.125000 0.000000 0.000000 27.940647 70.657831 -17.547265
8.788217 16.332875 6.821223 183.797733 16.434353 -162.811214 0.000000 0.000000 0.000000 -13.525688 -11.891355 -31.181783 3.132390 10.906233 31.964344 0.738834 3.818950 -18.062439 8.965864 -16.785156 -55.971221 0.000000 0.000000 0.000000 10.858170 8.758782 -3.264923 -18.328545 -19.922869 85.104738 -42.484833 48.738643 122.246122 -1.700995 -8.213411 23.364189 -6.196658 6.433335 -8.409816 0.541617 9.177620 0.598277 5.010161 4.403716 4.252022 -4.105039 -1.450625 -6.925460 6.191059 -5.105602 25.678674 2.202184 -2.888698 9.451805 0.000000 0.000000 0.000000 13.741592 15.563422 -26.929343 13.460775 -21.955988 2.624803 33.766291 3.932676 19.493610 0.000000 0.000000 0.000000 -7.125000 0.000000 0.000000 3.459867 6.949336 3.021525 0.000000 0.000000 0.000000 -10.464748 -6.219164 29.785940 -23.911867 -35.070767 -7.655962 -17.935949 17.378511 40.678858 0.000000 0.000000 0.000000 7.125000 0.000000 0.000000 27.363385 70.338858 -16.998846
8.757223 16.334986 6.715252 183.503626 16.058675 -162.967499 0.000000 0.000000 0.000000 -14.337384 -12.026077 -30.574116 3.106607 10.865546 31.827841 0.785588 3.505390 -18.369734 8.752669 -16.645159 -55.229689 0.000000 0.000000 0.000000 10.830079 9.640575 -3.530872 -17.143742 -19.790917 81.618253 -49.368186 48.967400 150.877951 -1.698753 -8.208136 23.348165 -6.385981 6.305669 -8.502203 0.810204 9.026807 0.760167 5.402326 4.310143 4.420771 -4.102995 -1.499555 -7.050884 5.875323 -5.176623 26.085544 2.081838 -2.964137 9.616927 0.000000 0.000000 0.000000 14.068209 16.194630 -28.152261 14.167225 -22.970063 2.895105 33.849248 2.807487 19.463474 0.000000 0.000000 0.000000 -7.125000 0.000000 0.000000 3.516974 6.965031 3.070455 0.000000 0.000000 0.000000 -11.000207 -5.397050 28.498596 -23.731974 -34.879334 -7.552827 -17.796809 16.813575 39.062721 0.000000 0.000000 0.000000 7.125000 0.000000 0.000000 25.009739 68.908681 -14.693405
8.730764 16.336582 6.616714 183.227282 15.658969 -163.205588 0.000000 0.000000 0.000000 -15.103129 -11.835971 -30.168152 3.113310 10.876184 31.863499 0.814626 3.130688 -18.463407 8.539709 -16.501001 -54.482361 0.000000 0.000000 0.000000 10.886221 10.500726 -3.816407 -16.060703 -19.607872 78.403728 -47.048701 42.249633 6.862060 -1.621719 -8.026353 22.795794 -6.680759 6.146824 -8.465200 1.173963 8.833364 0.911494 5.930096 4.197872 4.485279 -4.235295 -1.545960 -7.086933 5.629377 -5.236565 26.424167 2.010339 -3.043830 9.745401 0.000000 0.000000 0.000000 14.367527 16.793866 -29.298984 14.906676 -24.009941 3.191443 33.796692 1.511960 19.512196 0.000000 0.000000 0.000000 -7.125000 0.000000 0.000000 3.476151 6.921126 3.037581 0.000000 0.000000 0.000000 -11.553709 -4.388284 26.957570 -23.622852 -34.762832 -7.490453 -16.757509 16.129254 40.202410 0.000000 0.000000 0.000000 7.125000 0.000000 0.000000 28.087812 69.517782 -17.062794
8.706129 16.337878 6.522281 182.963689 15.193836 -163.478035 0.000000 0.000000 0.000000 -15.856067 -11.480594 -29.878449 3.135286 10.910859 31.979863 0.833025 2.718770 -18.432027 8.335040 -16.359867 -53.760147 0.000000 0.000000 0.000000 10.979712 11.332372 -4.206870 -15.078788 -19.405481 75.471247 -42.061528 34.367196 -166.513375 -1.459766 -7.613871 21.557761 -6.963202 5.960887 -8.353702 1.558577 8.596947 1.050742 6.460146 4.067327 4.502978 -4.415121 -1.594882 -7.064323 5.428918 -5.298860 26.702444 1.963052 -3.125917 9.843737 0.000000 0.000000 0.000000 14.716941 17.363133 -30.402145 15.679209 -25.080223 3.510794 33.559888 0.234451 19.550586 0.000000 0.000000 0.000000 -7.125000 0.000000 0.000000 3.320502 6.930050 2.901417 0.000000 0.000000 0.000000 -12.056157 -3.259200 25.244091 -23.545512 -34.679961 -7.446393 -15.559409 15.372414 42.140534 0.000000 0.000000 0.000000 7.125000 0.000000 0.000000 32.642099 70.746672 -20.752819
8.681335 16.338801 6.432269 182.722997 14.495497 -163.753678 0.000000 0.000000 0.000000 -16.634461 -10.991493 -29.729022 3.165356 10.957943 32.138193 0.837311 2.256046 -18.244023 8.164775 -16.238597 -53.153337 0.000000 0.000000 0.000000 11.084759 12.081685 -5.003992 -14.345894 -19.209959 73.253774 -41.742033 33.571459 -165.490926 -1.070305 -6.537348 18.366372 -7.012066 5.714985 -8.152575 1.866664 8.253647 1.157504 6.765991 3.892313 4.503901 -4.562834 -1.658715 -6.949582 5.299075 -5.390125 26.845079 1.933180 -3.210720 9.878753 0.000000 0.000000 0.000000 15.323684 17.861729 -31.453808 16.533701 -26.233636 3.881857 32.783341 -0.673785 19.409665 0.000000 0.000000 0.000000 -7.125000 0.000000 0.000000 2.851712 7.263459 2.472720 0.000000 0.000000 0.000000 -12.313204 -1.946863 23.244099 -23.479569 -34.609072 -7.408938 -15.246574 14.516998 42.679158 0.000000 0.000000 0.000000 7.125000 0.000000 0.000000 34.028754 71.061485 -21.927005
8.655738 16.339858 6.344217 182.391818 13.651133 -164.055174 0.000000 0.000000 0.000000 -17.588968 -10.521559 -29.487460 3.172158 10.968653 32.174256 0.842979 1.754409 -18.067563 7.994242 -16.114208 -52.540644 0.000000 0.000000 0.000000 11.127269 12.682788 -5.769689 -13.772488 -19.039622 71.504999 -41.446162 33.333302 -164.018275 -0.756041 -5.494434 15.338838 -7.017782 5.385149 -7.953989 2.117384 7.796593 1.284101 6.984158 3.657971 4.564019 -4.502696 -1.682832 -7.069034 4.955544 -5.397101 27.120055 1.797087 -3.252687 9.991596 0.000000 0.000000 0.000000 16.033439 18.256825 -32.345627 17.412487 -27.389813 4.279932 32.710933 -1.998123 19.712794 0.000000 0.000000 0.000000 -7.125000 0.000000 0.000000 2.759619 6.935474 2.409621 0.000000 0.000000 0.000000 -12.445621 -0.608808 21.148985 -23.347255 -34.466106 -7.333995 -15.908668 13.986484 42.036029 0.000000 0.000000 0.000000 7.125000 0.000000 0.000000 32.099794 70.767056 -20.432215
8.629356 16.341042 6.257443 182.005691 12.726383 -164.374112 0.000000 0.000000 0.000000 -18.648855 -10.085919 -29.153031 3.160780 10.950852 32.114481 0.852276 1.207623 -17.920892 7.785044 -15.956917 -51.781302 0.000000 0.000000 0.000000 11.138578 13.242657 -6.535130 -13.289518 -18.883198 70.021401 -41.217465 33.305644 -162.710859 -0.523494 -4.636974 12.876029 -7.000025 5.005515 -7.749869 2.335532 7.271606 1.417842 7.151773 3.388814 4.650285 -4.351898 -1.683261 -7.256995 4.522790 -5.355969 27.419940 1.617939 -3.270626 10.119441 0.000000 0.000000 0.000000 16.801381 18.564912 -33.117149 18.284134 -28.517013 4.685339 32.834725 -3.304678 20.085688 0.000000 0.000000 0.000000 -7.125000 0.000000 0.000000 2.780739 6.484056 2.452659 0.000000 0.000000 0.000000 -12.500631 0.750255 18.969891 -23.164653 -34.268067 -7.230879 -17.113639 13.802117 41.150128 0.000000 0.000000 0.000000 7.125000 0.000000 0.000000 29.082434 70.468348 -18.180302
